<mxfile host="app.diagrams.net" modified="2023-03-28T11:04:51.183Z" agent="5.0 (Windows NT 10.0; Win64; x64) AppleWebKit/537.36 (KHTML, like Gecko) Chrome/111.0.0.0 Safari/537.36" etag="J5TbHyvUnLgILqGRd63A" version="20.8.23" type="github">
  <diagram name="Page-1" id="u5Lc-cCuiknsohm4ihvO">
    <mxGraphModel dx="797" dy="369" grid="1" gridSize="10" guides="1" tooltips="1" connect="1" arrows="1" fold="1" page="1" pageScale="1" pageWidth="1654" pageHeight="1169" math="0" shadow="0">
      <root>
        <mxCell id="0" />
        <mxCell id="1" parent="0" />
        <mxCell id="K348h-NddoVdIBsT_bS8-15" style="edgeStyle=orthogonalEdgeStyle;rounded=0;orthogonalLoop=1;jettySize=auto;html=1;exitX=1;exitY=0;exitDx=0;exitDy=67.5;exitPerimeter=0;entryX=0;entryY=0.25;entryDx=0;entryDy=0;" edge="1" parent="1" source="K348h-NddoVdIBsT_bS8-1" target="K348h-NddoVdIBsT_bS8-2">
          <mxGeometry relative="1" as="geometry" />
        </mxCell>
        <mxCell id="K348h-NddoVdIBsT_bS8-1" value="MONGO" style="shape=cylinder3;whiteSpace=wrap;html=1;boundedLbl=1;backgroundOutline=1;size=15;" vertex="1" parent="1">
          <mxGeometry x="40" y="30" width="170" height="240" as="geometry" />
        </mxCell>
        <mxCell id="K348h-NddoVdIBsT_bS8-14" style="edgeStyle=orthogonalEdgeStyle;rounded=0;orthogonalLoop=1;jettySize=auto;html=1;exitX=0;exitY=0.5;exitDx=0;exitDy=0;entryX=1.018;entryY=0.475;entryDx=0;entryDy=0;entryPerimeter=0;" edge="1" parent="1" source="K348h-NddoVdIBsT_bS8-2" target="K348h-NddoVdIBsT_bS8-1">
          <mxGeometry relative="1" as="geometry" />
        </mxCell>
        <mxCell id="K348h-NddoVdIBsT_bS8-16" style="edgeStyle=orthogonalEdgeStyle;rounded=0;orthogonalLoop=1;jettySize=auto;html=1;exitX=1;exitY=0.25;exitDx=0;exitDy=0;entryX=0;entryY=0.25;entryDx=0;entryDy=0;" edge="1" parent="1" source="K348h-NddoVdIBsT_bS8-2" target="K348h-NddoVdIBsT_bS8-12">
          <mxGeometry relative="1" as="geometry" />
        </mxCell>
        <mxCell id="K348h-NddoVdIBsT_bS8-2" value="USER&lt;br&gt;&lt;br&gt;/API/V1/users" style="whiteSpace=wrap;html=1;aspect=fixed;" vertex="1" parent="1">
          <mxGeometry x="250" y="50" width="190" height="190" as="geometry" />
        </mxCell>
        <mxCell id="K348h-NddoVdIBsT_bS8-7" style="edgeStyle=orthogonalEdgeStyle;rounded=0;orthogonalLoop=1;jettySize=auto;html=1;entryX=0.5;entryY=0;entryDx=0;entryDy=0;" edge="1" parent="1" source="K348h-NddoVdIBsT_bS8-3" target="K348h-NddoVdIBsT_bS8-6">
          <mxGeometry relative="1" as="geometry" />
        </mxCell>
        <mxCell id="K348h-NddoVdIBsT_bS8-8" style="edgeStyle=orthogonalEdgeStyle;rounded=0;orthogonalLoop=1;jettySize=auto;html=1;exitX=1;exitY=0.25;exitDx=0;exitDy=0;entryX=0.5;entryY=1;entryDx=0;entryDy=0;" edge="1" parent="1" source="K348h-NddoVdIBsT_bS8-3" target="K348h-NddoVdIBsT_bS8-4">
          <mxGeometry relative="1" as="geometry" />
        </mxCell>
        <mxCell id="K348h-NddoVdIBsT_bS8-11" style="edgeStyle=orthogonalEdgeStyle;rounded=0;orthogonalLoop=1;jettySize=auto;html=1;exitX=1;exitY=0.75;exitDx=0;exitDy=0;entryX=0.5;entryY=0;entryDx=0;entryDy=0;" edge="1" parent="1" source="K348h-NddoVdIBsT_bS8-3" target="K348h-NddoVdIBsT_bS8-10">
          <mxGeometry relative="1" as="geometry" />
        </mxCell>
        <mxCell id="K348h-NddoVdIBsT_bS8-3" value="PUPETEER" style="whiteSpace=wrap;html=1;aspect=fixed;" vertex="1" parent="1">
          <mxGeometry x="250" y="270" width="190" height="190" as="geometry" />
        </mxCell>
        <mxCell id="K348h-NddoVdIBsT_bS8-5" style="edgeStyle=orthogonalEdgeStyle;rounded=0;orthogonalLoop=1;jettySize=auto;html=1;entryX=1;entryY=0.5;entryDx=0;entryDy=0;" edge="1" parent="1" source="K348h-NddoVdIBsT_bS8-4" target="K348h-NddoVdIBsT_bS8-3">
          <mxGeometry relative="1" as="geometry" />
        </mxCell>
        <mxCell id="K348h-NddoVdIBsT_bS8-13" style="edgeStyle=orthogonalEdgeStyle;rounded=0;orthogonalLoop=1;jettySize=auto;html=1;exitX=0;exitY=0.25;exitDx=0;exitDy=0;entryX=1;entryY=0.25;entryDx=0;entryDy=0;" edge="1" parent="1" source="K348h-NddoVdIBsT_bS8-4" target="K348h-NddoVdIBsT_bS8-12">
          <mxGeometry relative="1" as="geometry" />
        </mxCell>
        <mxCell id="K348h-NddoVdIBsT_bS8-4" value="FRONTEND" style="whiteSpace=wrap;html=1;aspect=fixed;" vertex="1" parent="1">
          <mxGeometry x="1180" y="30" width="270" height="270" as="geometry" />
        </mxCell>
        <mxCell id="K348h-NddoVdIBsT_bS8-6" value="https://worldtravelers.org/travel-tips-tipping-guide.asp" style="whiteSpace=wrap;html=1;aspect=fixed;" vertex="1" parent="1">
          <mxGeometry x="250" y="560" width="210" height="210" as="geometry" />
        </mxCell>
        <mxCell id="K348h-NddoVdIBsT_bS8-10" value="https://en.wikipedia.org/wiki/National_dish#By_country" style="rounded=0;whiteSpace=wrap;html=1;" vertex="1" parent="1">
          <mxGeometry x="480" y="560" width="420" height="180" as="geometry" />
        </mxCell>
        <mxCell id="K348h-NddoVdIBsT_bS8-17" style="edgeStyle=orthogonalEdgeStyle;rounded=0;orthogonalLoop=1;jettySize=auto;html=1;exitX=1;exitY=0.5;exitDx=0;exitDy=0;entryX=0.004;entryY=0.426;entryDx=0;entryDy=0;entryPerimeter=0;" edge="1" parent="1" source="K348h-NddoVdIBsT_bS8-12" target="K348h-NddoVdIBsT_bS8-4">
          <mxGeometry relative="1" as="geometry" />
        </mxCell>
        <mxCell id="K348h-NddoVdIBsT_bS8-18" style="edgeStyle=orthogonalEdgeStyle;rounded=0;orthogonalLoop=1;jettySize=auto;html=1;exitX=0;exitY=0.5;exitDx=0;exitDy=0;entryX=1;entryY=0.5;entryDx=0;entryDy=0;" edge="1" parent="1" source="K348h-NddoVdIBsT_bS8-12" target="K348h-NddoVdIBsT_bS8-2">
          <mxGeometry relative="1" as="geometry" />
        </mxCell>
        <mxCell id="K348h-NddoVdIBsT_bS8-12" value="ROUTES&lt;br&gt;GET : LOGIN&lt;br&gt;POST: REGISTER&lt;br&gt;PUT: ADD TRIED DISH" style="whiteSpace=wrap;html=1;aspect=fixed;" vertex="1" parent="1">
          <mxGeometry x="480" y="50" width="190" height="190" as="geometry" />
        </mxCell>
      </root>
    </mxGraphModel>
  </diagram>
</mxfile>
